<svg xmlns="http://www.w3.org/2000/svg" width="320.57" height="62.99" viewBox="0 0 320.57 62.99"><defs><style>.a{fill:#231815;}</style></defs><path class="a" d="M42.62,43.62V63H62V43.62Zm1,1h4.5a9.72,9.72,0,0,0-4.5,4.5Zm0,12.94a9.81,9.81,0,0,0,4.5,4.5h-4.5ZM61,62H52.31a8.73,8.73,0,0,1-8.72-8.72h0a8.73,8.73,0,0,1,8.72-8.71H61Z"/><path class="a" d="M42.62,1v9.68h0v9.68H62V1Zm1,1h4.5a9.72,9.72,0,0,0-4.5,4.5Zm0,12.94a9.74,9.74,0,0,0,4.5,4.49h-4.5ZM61,19.4H52.31a8.72,8.72,0,0,1-8.72-8.71h0A8.73,8.73,0,0,1,52.31,2H61Z"/><path class="a" d="M0,1V20.37H19.37V1ZM1,2H5.46A9.77,9.77,0,0,0,1,6.46ZM9.69,2A8.72,8.72,0,1,1,1,10.69,8.73,8.73,0,0,1,9.69,2ZM1,19.4V14.91A9.68,9.68,0,0,0,5.46,19.4Zm17.43,0H13.91a9.59,9.59,0,0,0,4.49-4.49ZM13.91,2H18.4V6.46A9.68,9.68,0,0,0,13.91,2Z"/><path class="a" d="M21.31,22.31V41.68H40.68V22.31Zm1,1h8.23V40.72H22.28ZM39.71,40.72H31.48V23.28h8.23Z"/><path class="a" d="M0,43.62V63H19.37V43.62Zm18.4,2.66a5.19,5.19,0,0,0-1.54-1.69H18.4ZM1,44.59H13.8a4.36,4.36,0,0,1,0,8.72H1ZM1,62V54.28H13.8a5.3,5.3,0,0,0,4.6-2.66V62Z"/><path class="a" d="M39.71,2V19.4H22.28V2H39.71m1-1H21.31V20.37H40.68V1Z"/><path class="a" d="M39.71,44.59V62H22.28V44.59H39.71m1-1H21.31V63H40.68V43.62Z"/><path class="a" d="M87.77,38.15c-2.57,0-4.17,1.78-4.17,4.66s1.6,4.67,4.17,4.67,4.17-1.79,4.17-4.67S90.34,38.15,87.77,38.15Zm0,8.19c-1.8,0-2.91-1.35-2.91-3.53s1.11-3.53,2.91-3.53,2.91,1.36,2.91,3.53S89.57,46.34,87.77,46.34Z"/><path class="a" d="M96.38,42.3,100,38.39a.06.06,0,0,0,0-.1H98.57l0,0-3.9,4.32V38.35a.06.06,0,0,0-.06-.06H93.46a.06.06,0,0,0-.06.06v8.92a.06.06,0,0,0,.06.06h1.11a.06.06,0,0,0,.06-.06V44.18l.9-1,3.31,4.13,0,0h1.42a.05.05,0,0,0,0,0,.06.06,0,0,0,0-.06Z"/><rect class="a" x="101.68" y="38.29" width="1.23" height="9.04" rx="0.06"/><path class="a" d="M105.11,47.33h1.1a.06.06,0,0,0,.06-.06V40.39l4.84,6.92,0,0h1.09a.06.06,0,0,0,.05-.06V38.35a.06.06,0,0,0-.05-.06h-1.1a.06.06,0,0,0-.06.06v6.91l-4.84-6.94a.05.05,0,0,0,0,0h-1.08a.06.06,0,0,0,0,.06v8.92A.06.06,0,0,0,105.11,47.33Z"/><path class="a" d="M120.17,47.29s0,0,0,0h1.17l0,0a.07.07,0,0,0,0-.06l-3.29-8.92a.07.07,0,0,0-.05,0H117a.07.07,0,0,0-.06,0l-3.29,8.92a.13.13,0,0,0,0,.06l0,0h1.17a.07.07,0,0,0,.05,0l.88-2.51h3.47Zm-4-3.57,1.37-3.9,1.37,3.9Z"/><path class="a" d="M132.76,38.32s0,0,0,0h-1.16a.06.06,0,0,0-.06.05l-1.76,7.17-2-7.18a0,0,0,0,0-.05,0h-1.13a.07.07,0,0,0,0,0l-2,7.18-1.76-7.17a.05.05,0,0,0-.05-.05h-1.17a.05.05,0,0,0,0,0,.06.06,0,0,0,0,0L124,47.29a.07.07,0,0,0,.06,0h1a.07.07,0,0,0,0,0l2-7,2,7a.07.07,0,0,0,.06,0h1s.05,0,.05,0l2.43-8.93S132.77,38.33,132.76,38.32Z"/><path class="a" d="M140.63,47.25l-3.29-8.92a.07.07,0,0,0-.05,0h-1.1a.07.07,0,0,0-.05,0l-3.29,8.92a.06.06,0,0,0,0,.06l.05,0h1.17a.07.07,0,0,0,.05,0l.88-2.51h3.48l.88,2.51a.07.07,0,0,0,0,0h1.17l0,0A.06.06,0,0,0,140.63,47.25Zm-2.52-3.53h-2.74l1.37-3.9Z"/><path class="a" d="M87.68,53.21a2.49,2.49,0,0,1,2.52,1.9.07.07,0,0,0,0,0h1.13l0,0a.08.08,0,0,0,0-.05,3.61,3.61,0,0,0-3.76-3c-2.48,0-4.08,1.83-4.08,4.67s1.6,4.67,4.08,4.67a3.49,3.49,0,0,0,3.75-2.79,0,0,0,0,0,0,0,.05.05,0,0,0,0,0H90.25a.07.07,0,0,0,0,0,2.4,2.4,0,0,1-2.52,1.68c-1.71,0-2.82-1.39-2.82-3.53S86,53.21,87.68,53.21Z"/><path class="a" d="M99.39,54.94a2.64,2.64,0,0,0-2.9-2.72H93.15a.06.06,0,0,0-.06.06V61.2a.06.06,0,0,0,.06.06h1.11a.06.06,0,0,0,.06-.06V57.73h2l1.9,3.5s0,0,0,0h1.31a.05.05,0,0,0,0,0,0,0,0,0,0,0,0l-2-3.65A2.6,2.6,0,0,0,99.39,54.94Zm-5.07-1.62h2A1.59,1.59,0,0,1,98.13,55a1.54,1.54,0,0,1-1.74,1.66H94.32Z"/><path class="a" d="M104.81,52.22h-1.1a.07.07,0,0,0-.06,0l-3.29,8.92a.07.07,0,0,0,0,0,.05.05,0,0,0,0,0h1.17a.07.07,0,0,0,0,0l.88-2.52H106l.89,2.52s0,0,.05,0h1.17s0,0,0,0a0,0,0,0,0,0,0l-3.29-8.92A.07.07,0,0,0,104.81,52.22Zm.82,5.43h-2.74l1.37-3.9Z"/><path class="a" d="M115,52.22h-5.42a.06.06,0,0,0,0,.06V61.2a.06.06,0,0,0,0,.06h1.11a.06.06,0,0,0,.06-.06V57.39h3.9a0,0,0,0,0,0,0v-1a.06.06,0,0,0,0-.06h-3.9V53.34H115a.06.06,0,0,0,.05-.06v-1A.06.06,0,0,0,115,52.22Z"/><path class="a" d="M123.06,52.22h-6.74a.06.06,0,0,0-.06.06v1a.06.06,0,0,0,.06.06h2.76V61.2a.06.06,0,0,0,0,.06h1.11a.06.06,0,0,0,.06-.06V53.34h2.76a.06.06,0,0,0,0-.06v-1A.06.06,0,0,0,123.06,52.22Z"/><rect class="a" x="127.84" y="52.22" width="1.23" height="9.04" rx="0.06"/><path class="a" d="M138.39,52.22h-1.1a.06.06,0,0,0,0,.06v6.91l-4.84-6.94a.05.05,0,0,0-.05,0h-1.08a.06.06,0,0,0-.06.06V61.2a.06.06,0,0,0,.06.06h1.1a.06.06,0,0,0,.06-.06V54.32l4.84,6.91s0,0,0,0h1.08a.06.06,0,0,0,.06-.06V52.28A.06.06,0,0,0,138.39,52.22Z"/><path class="a" d="M143.65,52.22h-3a.06.06,0,0,0-.06.06V61.2a.06.06,0,0,0,.06.06h3c2.67,0,4.27-1.69,4.27-4.52S146.32,52.22,143.65,52.22Zm-1.83,1.12h1.76c2,0,3.09,1.21,3.09,3.41s-1.1,3.39-3.09,3.39h-1.76Z"/><path class="a" d="M156.78,52.22h-1.11a.06.06,0,0,0-.06.06V58a2.38,2.38,0,0,1-4.75,0V52.28a.06.06,0,0,0-.06-.06h-1.11a.06.06,0,0,0-.05.06v5.79a3.6,3.6,0,0,0,7.19,0V52.28A.06.06,0,0,0,156.78,52.22Z"/><path class="a" d="M162.54,56.2l-1-.22c-1.14-.24-1.65-.68-1.65-1.39s.77-1.4,1.92-1.4a1.77,1.77,0,0,1,2,1.52.05.05,0,0,0,0,0H165a.06.06,0,0,0,0,0c-.05-1.55-1.35-2.64-3.17-2.64s-3.2,1.06-3.2,2.56c0,1.34.82,2.14,2.6,2.53l1,.21c1.17.26,1.69.71,1.69,1.46s-.86,1.46-2,1.46-2.12-.57-2.24-1.49a.06.06,0,0,0-.06,0h-1.11l0,0a.08.08,0,0,0,0,0c.11,1.58,1.45,2.6,3.41,2.6s3.35-1.08,3.35-2.74C165.18,57.34,164.39,56.61,162.54,56.2Z"/><path class="a" d="M172.94,52.22h-6.75a.06.06,0,0,0-.05.06v1a.06.06,0,0,0,.05.06H169V61.2a.06.06,0,0,0,.06.06h1.11a.06.06,0,0,0,.06-.06V53.34h2.76a.06.06,0,0,0,.05-.06v-1A.06.06,0,0,0,172.94,52.22Z"/><path class="a" d="M180.73,54.94a2.64,2.64,0,0,0-2.9-2.72h-3.35a.06.06,0,0,0,0,.06V61.2a.06.06,0,0,0,0,.06h1.12a.06.06,0,0,0,.05-.06V57.73h2l1.89,3.5a.05.05,0,0,0,0,0H181s0,0,0,0,0,0,0,0l-2-3.65A2.59,2.59,0,0,0,180.73,54.94Zm-5.08-1.62h2A1.59,1.59,0,0,1,179.47,55a1.54,1.54,0,0,1-1.74,1.66h-2.08Z"/><path class="a" d="M187.66,52.22a.05.05,0,0,0,0,0l-2.4,4-2.41-4a.05.05,0,0,0-.05,0h-1.27a.05.05,0,0,0,0,0,0,0,0,0,0,0,.06l3.15,5.07V61.2a.06.06,0,0,0,.06.06h1.11a.06.06,0,0,0,.06-.06V57.38L189,52.31a.06.06,0,0,0,0-.06.05.05,0,0,0,0,0Z"/><path class="a" d="M196.8,52.22h-3.19a.06.06,0,0,0-.05.06V61.2a.06.06,0,0,0,.05.06h1.11a.06.06,0,0,0,.06-.06V58.07h2a2.93,2.93,0,0,0,0-5.85Zm-2,1.1h1.73a1.83,1.83,0,1,1,0,3.65h-1.73Z"/><path class="a" d="M207.5,54.94a2.64,2.64,0,0,0-2.9-2.72h-3.35a.06.06,0,0,0-.06.06V61.2a.06.06,0,0,0,.06.06h1.11a.06.06,0,0,0,.06-.06V57.73h2l1.9,3.5a.05.05,0,0,0,0,0h1.3a.05.05,0,0,0,0,0,0,0,0,0,0,0,0l-2-3.65A2.59,2.59,0,0,0,207.5,54.94Zm-5.08-1.62h2A1.58,1.58,0,0,1,206.23,55a1.53,1.53,0,0,1-1.73,1.66h-2.08Z"/><path class="a" d="M213,52.07c-2.57,0-4.17,1.79-4.17,4.67s1.6,4.67,4.17,4.67,4.17-1.79,4.17-4.67S215.55,52.07,213,52.07Zm0,8.2c-1.79,0-2.91-1.35-2.91-3.53s1.12-3.53,2.91-3.53,2.92,1.36,2.92,3.53S214.78,60.27,213,60.27Z"/><path class="a" d="M227.77,52.22h-1.29a.07.07,0,0,0,0,0l-3.06,7.44-3.05-7.44a.07.07,0,0,0,0,0H219a.06.06,0,0,0-.06.06V61.2a.06.06,0,0,0,.06.06h1a.06.06,0,0,0,0-.06V54.5l2.78,6.72a.05.05,0,0,0,.05,0h.94a.05.05,0,0,0,.06,0l2.78-6.72v6.7a.06.06,0,0,0,0,.06h1a.06.06,0,0,0,.06-.06V52.28A.06.06,0,0,0,227.77,52.22Z"/><path class="a" d="M233.76,52.07c-2.57,0-4.17,1.79-4.17,4.67s1.6,4.67,4.17,4.67,4.17-1.79,4.17-4.67S236.33,52.07,233.76,52.07Zm0,8.2c-1.79,0-2.91-1.35-2.91-3.53s1.12-3.53,2.91-3.53,2.92,1.36,2.92,3.53S235.56,60.27,233.76,60.27Z"/><path class="a" d="M245.47,52.22h-6.74a.06.06,0,0,0-.06.06v1a.06.06,0,0,0,.06.06h2.75V61.2a.06.06,0,0,0,.06.06h1.11a.06.06,0,0,0,.06-.06V53.34h2.76a.06.06,0,0,0,.05-.06v-1A.06.06,0,0,0,245.47,52.22Z"/><rect class="a" x="246.96" y="52.22" width="1.23" height="9.04" rx="0.06"/><path class="a" d="M254.14,52.07c-2.57,0-4.17,1.79-4.17,4.67s1.6,4.67,4.17,4.67,4.17-1.79,4.17-4.67S256.71,52.07,254.14,52.07Zm0,8.2c-1.8,0-2.92-1.35-2.92-3.53s1.12-3.53,2.92-3.53,2.91,1.36,2.91,3.53S255.93,60.27,254.14,60.27Z"/><path class="a" d="M267.26,52.22h-1.1a.06.06,0,0,0-.06.06v6.91l-4.84-6.94a.05.05,0,0,0-.05,0h-1.08a.06.06,0,0,0-.05.06V61.2a.06.06,0,0,0,.05.06h1.1a.06.06,0,0,0,.06-.06V54.32l4.84,6.91a.05.05,0,0,0,0,0h1.09a.06.06,0,0,0,.05-.06V52.28A.06.06,0,0,0,267.26,52.22Z"/><path class="a" d="M276.32,53.21a2.49,2.49,0,0,1,2.53,1.9.07.07,0,0,0,0,0H280a.05.05,0,0,0,0,0,0,0,0,0,0,0-.05,3.6,3.6,0,0,0-3.76-3c-2.47,0-4.07,1.83-4.07,4.67s1.6,4.67,4.07,4.67a3.49,3.49,0,0,0,3.76-2.79,0,0,0,0,0,0,0,.05.05,0,0,0,0,0H278.9a.07.07,0,0,0,0,0,2.4,2.4,0,0,1-2.52,1.68c-1.72,0-2.83-1.39-2.83-3.53S274.61,53.21,276.32,53.21Z"/><path class="a" d="M287.32,52.22H281.8a.06.06,0,0,0-.06.06V61.2a.06.06,0,0,0,.06.06h5.52a.06.06,0,0,0,.06-.06v-1a.06.06,0,0,0-.06-.06H283v-3h4.14a.06.06,0,0,0,0-.06v-1a0,0,0,0,0,0,0H283V53.34h4.36a.06.06,0,0,0,.06-.06v-1A.06.06,0,0,0,287.32,52.22Z"/><path class="a" d="M296.26,52.22h-1.1a.06.06,0,0,0-.06.06v6.91l-4.84-6.94s0,0,0,0h-1.08a.06.06,0,0,0-.06.06V61.2a.06.06,0,0,0,.06.06h1.1a.06.06,0,0,0,.05-.06V54.32l4.84,6.91a.05.05,0,0,0,.05,0h1.08a.06.06,0,0,0,.06-.06V52.28A.06.06,0,0,0,296.26,52.22Z"/><path class="a" d="M304.55,52.22h-6.74a.06.06,0,0,0-.06.06v1a.06.06,0,0,0,.06.06h2.76V61.2a.06.06,0,0,0,.05.06h1.11a.06.06,0,0,0,.06-.06V53.34h2.76a.06.06,0,0,0,.05-.06v-1A.06.06,0,0,0,304.55,52.22Z"/><path class="a" d="M311.62,52.22H306.1a.06.06,0,0,0-.06.06V61.2a.06.06,0,0,0,.06.06h5.52a.06.06,0,0,0,.06-.06v-1a.06.06,0,0,0-.06-.06h-4.36v-3h4.14a.06.06,0,0,0,.05-.06v-1a0,0,0,0,0-.05,0h-4.14V53.34h4.36a.06.06,0,0,0,.06-.06v-1A.06.06,0,0,0,311.62,52.22Z"/><path class="a" d="M317.92,57.53a2.6,2.6,0,0,0,1.76-2.59,2.64,2.64,0,0,0-2.9-2.72h-3.34a.06.06,0,0,0-.06.06V61.2a.06.06,0,0,0,.06.06h1.11a.06.06,0,0,0,.06-.06V57.73h2l1.89,3.5a.05.05,0,0,0,0,0h1.31a.05.05,0,0,0,.05,0,0,0,0,0,0,0,0Zm-3.31-4.21h2A1.59,1.59,0,0,1,318.42,55a1.54,1.54,0,0,1-1.74,1.66h-2.07Z"/><path class="a" d="M229.43,19.36a.22.22,0,0,0-.15-.06,14.62,14.62,0,0,1-1.65.17c-1.39.11-2.6.16-3.7.16h-2.58l-3.56,0H217l0-12.76h.8c2,0,3.85,0,6,.1.36,0,.8,0,1.22.09l.17,0a.16.16,0,0,0,.15,0,.14.14,0,0,0,.06-.12l0-.34c.08-.61.16-1.23.28-1.82a.22.22,0,0,0,0-.17.18.18,0,0,0-.16,0h-.11a8.64,8.64,0,0,1-.92.1c-3.6.11-6.74.16-9.61.16l-2.7,0h-2.66c-.95,0-1.92-.07-2.85-.13a.17.17,0,0,0-.15,0,.17.17,0,0,0-.06.14V7a.2.2,0,0,0,.06.14.21.21,0,0,0,.15,0h.08c.18,0,.36,0,.55-.06,2-.14,5-.19,7-.19h.81V19.59l-2,0c-1.81,0-3.37,0-5.79,0l-1.55,0c-.5,0-1,0-1.54,0s-1,0-1.5,0l-.19,0a.2.2,0,0,0-.15.05.18.18,0,0,0-.06.14l0,2.33a.21.21,0,0,0,.07.14.19.19,0,0,0,.15,0l.28,0a34,34,0,0,1,4.51-.45l1.76-.05c1.87-.05,3.81-.11,5.73-.11,3,0,5.65,0,8,.13,1.46.06,3,.13,4.45.31.33,0,.67.08,1,.13l.65.08h0a.17.17,0,0,0,.12-.05.19.19,0,0,0,.07-.12V22c.1-.89.23-1.8.36-2.51A.16.16,0,0,0,229.43,19.36Z"/><path class="a" d="M259.06,15a.08.08,0,0,0-.08,0l-.42.09c-.31.07-.63.14-.93.18l-1,.09c-.52,0-1.06.11-1.62.13-1.51,0-3.17.05-5.21.05h-11l-4.07,0a13.64,13.64,0,0,1-1.57-.09l-.3,0a.08.08,0,0,0-.07,0,.07.07,0,0,0,0,.06V17.8a.07.07,0,0,0,0,.06.06.06,0,0,0,.07,0l.23,0a3.55,3.55,0,0,1,.47-.08,24,24,0,0,1,2.7-.25l7.18-.12-.93.93c-.35.35-.69.73-1,1.1l0,0c-.34.37-.69.75-1.05,1.11a52.45,52.45,0,0,0-3.54,3.91l0,0a1.49,1.49,0,0,0-.33.47.11.11,0,0,0,0,.08.1.1,0,0,0,.07,0h.25c1,0,2.09-.05,3.1-.1h.2l.77,0c2.59-.16,5.24-.16,7.81-.16,1,0,2.08.06,3.12.11s2,.11,3,.11c.32,0,.53-.05.59-.13a.13.13,0,0,0,0-.06h0c0-.15-.2-.39-.6-.79l-.08-.08c-.55-.61-3.28-3.46-4.55-4.49a1.07,1.07,0,0,1-.16-.14l-.13-.12-.07,0a2.18,2.18,0,0,0-.42.16l-.24.11-.29.11a4.43,4.43,0,0,0-.76.36.08.08,0,0,0,0,.07.07.07,0,0,0,0,.06l.22.19a20.37,20.37,0,0,1,1.83,2l.68.86h-1.1l-1.81,0h-2c-1.38,0-2.68,0-4.05.06l-1.34.06.93-1c.31-.32.62-.66.92-1v0c.5-.56,1-1.13,1.59-1.67l2.22-2.12h.21l3.65,0,4.06,0,.64,0c.85,0,1.72,0,2.58.14l.29.05h.07c.31,0,.6.08.88.09h0a.09.09,0,0,0,.09-.07l0-.15c0-.08,0-.18,0-.22,0-.36.1-.75.16-1.15s.11-.76.14-1.09A.14.14,0,0,0,259.06,15Z"/><path class="a" d="M234.67,5.85l.34-.07.28,0h.05c.91-.1,1.86-.16,2.82-.19,1.44-.07,2.24-.1,3.19-.1h.5l0,.5.06.74v0c0,.24,0,.49.06.77,0,.06,0,.14,0,.23v0c0,.11,0,.24,0,.36l0,.06.07,0,.25,0,.74-.09h0L244,8a.09.09,0,0,0,.08-.09,2.34,2.34,0,0,0,0-.33V7.47c0-.5-.07-1-.13-1.44l-.07-.6,4.2,0-.09.6-.06.46a8.77,8.77,0,0,1-.14.93c0,.21-.08.39-.1.54a.07.07,0,0,0,.06.09l.22.06c.12,0,.48.07.82.11l.56.06h.06l.21.05h0a.09.09,0,0,0,.08-.06c0-.11,0-.25.08-.42v0a3.06,3.06,0,0,1,0-.32l.28-2.11.48,0c.78,0,2.75.07,4.15.18l.92.08c.34,0,.68.07,1,.08h0a.08.08,0,0,0,.08-.07,1.68,1.68,0,0,0,0-.2s0-.1,0-.17.1-.5.16-.79l0-.14c.06-.28.14-.65.19-.9a.19.19,0,0,0,0-.08.07.07,0,0,0-.07,0l-.55,0a9.2,9.2,0,0,1-.94,0l-2.5,0h-2.67l.19-1.67c0-.2.08-.42.13-.64s.08-.38.1-.55a.08.08,0,0,0-.06-.09l-.17,0-.1,0C250,.45,249,.27,248.56.24h0a.08.08,0,0,0-.08.07c0,.24-.05.6-.08,1l0,.36c-.06.49-.09.91-.11,1.31l0,.64H243.7l0-.51c0-.24,0-.47,0-.71s-.06-.65-.07-1a3.19,3.19,0,0,1,0-.42v0a2.05,2.05,0,0,0,0-.37c0-.05,0-.09,0-.12s0-.08-.09-.07-.62,0-1.1.09l-.92.09h-.11a.07.07,0,0,0-.06,0,.07.07,0,0,0,0,.06c0,.05,0,.1,0,.15a8.53,8.53,0,0,1,.17,1c0,.19,0,.37.07.53s.07.5.09.71l.05.58h-4.13c-.7,0-1.37,0-2.05-.09l-.56-.09-.17,0a.08.08,0,0,0-.08,0,.14.14,0,0,0,0,.06V5.76a.09.09,0,0,0,0,.07Z"/><path class="a" d="M238.65,12.3l.06,0h0l.41-.05.51-.06h.1c1.54-.06,3-.12,4.47-.12,2.63,0,4.89,0,6.93.13.42,0,.81,0,1.24,0l.42,0h0a.08.08,0,0,0,.08-.07,1.41,1.41,0,0,0,0-.18c0-.09,0-.17,0-.21,0-.19.06-.48.11-.8s.12-.84.15-1.18a.07.07,0,0,0,0-.06.14.14,0,0,0-.09,0,2.15,2.15,0,0,1-.4.09,10.18,10.18,0,0,1-1.48.13c-3.15.19-6.36.19-9.46.19-.74,0-1.49,0-2.38-.07l-.34,0-.3,0a.09.09,0,0,0-.06,0,.06.06,0,0,0,0,.06v.68c0,.43,0,.91,0,1.36v.09A.09.09,0,0,0,238.65,12.3Z"/><path class="a" d="M300.86,13l1.41,1.09c.41.31.76.58,1.18.87l.17.12.25.18.09-.14.14-.22c.11-.16.21-.31.3-.46s.28-.46.48-.73l.18-.24.11-.15-.16-.08a8.93,8.93,0,0,0-.89-.4,10,10,0,0,1-1.36-.66c-.5-.29-1-.6-1.6-1l-.32-.21v-4h2c.54,0,.94,0,1.31,0l.3,0V7c0-.44.09-.83.15-1.22,0-.16.05-.32.07-.48l0-.2-.2,0-.26,0-3.36.12,0-.75c0-1.52.14-3,.22-4.29l0-.07L301,0h-.06l-1.89,0h-.17V.17a1,1,0,0,1,0,.17c.1,1.4.1,2.8.1,4.16v.7h-4.22l-.75,0-.24,0v.16c0,.44,0,1,0,1.49v.46h.34c.59-.07,1.05-.1,1.61-.13s1.31,0,2.08,0h1.28l-.68,1.08c-.8,1.28-1.64,2.54-2.39,3.66l0,0c-.47.77-1,1.51-1.5,2.22s-.92,1.29-1.33,2a10.24,10.24,0,0,1-.65.88l0,0-.47.62-.08.11.1.09.06.06c.16.15.33.29.52.45s.64.54,1,.85l.15.14.1-.18c.82-1.49,1.66-2.83,2.56-4.25.47-.74.94-1.49,1.42-2.28L299,10.61V13c-.06.77-.06,1.41-.06,2.09,0,.39,0,.79,0,1.23,0,.6,0,1.2-.05,1.82v.22c0,.64-.05,1.29-.06,1.94,0,1.81-.14,3.5-.26,5.31l0,.43h2.36v-.17a3.83,3.83,0,0,1,0-.47c0-1.91,0-3.5,0-4.9,0-2.12,0-4.13,0-6.05Z"/><path class="a" d="M320.36,21.06l-.31.05c-.55.07-1.12.09-1.68.11l-.49,0c-.67.05-1.67.08-3,.08-.66,0-1.33,0-1.95,0h-.7V10H313c1.38,0,2.68,0,4.08.07l.45.06.42.05h.15l0-.14c0-.21.08-.5.12-.81v0c.06-.36.14-.89.19-1.3v-.2l-.2,0a4.37,4.37,0,0,1-.59.08c-.72.07-1.46.13-2.16.16S313.77,8,313,8h-.71V5.66c0-1.17.05-2.43.16-3.85,0-.19,0-.38.06-.57s0-.26,0-.38V.69H310l0,.17,0,.26.06.52c0,.35,0,.69.06,1s.05.64.06,1c0,.73,0,1.47.05,2.2,0,.48,0,1,0,1.43l0,.73h-.73L307.9,8h-.06l-1.59,0a7.54,7.54,0,0,1-.83-.06h-.05l-.3,0-.3,0V8c0,.32,0,.64,0,1v.12c0,.32,0,.64,0,.95v.18l.18,0,.17,0h0a3.76,3.76,0,0,1,.6-.09c1.19-.1,2.49-.1,3.75-.1h.71V21.3h-.71l-2,0h-2.87c-.33,0-.69,0-1.09,0l-.4-.07-.22,0v.18c0,.58,0,1.36,0,1.87h0v.62l.2-.05.26-.08.28-.08c.6-.13,1.19-.19,1.76-.26a28.15,28.15,0,0,1,3.64-.2h1.9c2.28,0,4.59.13,6.81.25a10.56,10.56,0,0,1,1.13.13l.5.06a3.76,3.76,0,0,1,.53.1l.16,0,0-.17c0-.13,0-.27,0-.41,0-.33.09-.7.16-1.11s.1-.58.13-.86l0-.21Zm-2.3-11.9Zm-12.7-1.11Z"/><path class="a" d="M105.56,8.08a9.7,9.7,0,0,0-5.41-2.87.46.46,0,0,0-.49.27A10.24,10.24,0,0,0,99,6.63a.14.14,0,0,0,0,.09s0,.06.08.06a9.33,9.33,0,0,1,5.09,2.91.41.41,0,0,0,.24.13h0a.38.38,0,0,0,.25-.13,8.8,8.8,0,0,0,.87-1.11A.35.35,0,0,0,105.56,8.08Z"/><path class="a" d="M98.68,12a16.69,16.69,0,0,0-6.93,2c0-1.89,0-3.54,0-5a26.06,26.06,0,0,0,4.14-1.1c.22-.08.37-.14.37-.45a9,9,0,0,0-.11-1.15A.38.38,0,0,0,96,5.91a.39.39,0,0,0-.35,0A24.35,24.35,0,0,1,91.87,7c0-.79,0-1.39.09-2.08s.07-.85.09-1c.07-.61.1-.87.14-1.12,0-.09,0-.17-.14-.21a9,9,0,0,0-2.11-.43.1.1,0,0,0-.09,0,.13.13,0,0,0,0,.1,12.45,12.45,0,0,1,.12,2.51c0,.76,0,1.41,0,2.16v.39a35.89,35.89,0,0,1-5.5.2.11.11,0,0,0-.08,0,.14.14,0,0,0,0,.09A7.37,7.37,0,0,0,84.44,9a.54.54,0,0,0,.62.49,37.26,37.26,0,0,0,4.83-.28c0,1.84,0,3.73,0,5.58-1.53.88-3.11,1.77-4.3,2.34A12.55,12.55,0,0,1,83,18s-.05,0-.07,0a.17.17,0,0,0,0,.1,8.81,8.81,0,0,0,.85,1.66.61.61,0,0,0,.49.35.7.7,0,0,0,.44-.21l.15-.1c.19-.13.41-.28.7-.45a19.24,19.24,0,0,1,3.83,3c.19.2.33.37.45.5.3.35.44.51.66.51a5.73,5.73,0,0,0,1.16-.2c.36-.1.38-.34.38-.72,0-.21,0-.51,0-.88s-.08-1-.11-1.69c-.09-1.8-.13-3.16-.14-4.05,2.91-1.52,5-2.23,6.61-2.23,2.26,0,3.61,1.18,3.61,3.16S100.59,20,98.28,20a6.57,6.57,0,0,1-2.84-.56.11.11,0,0,0-.13,0,.15.15,0,0,0,0,.13,7.27,7.27,0,0,1,.3,1.27.72.72,0,0,0,.57.72,7,7,0,0,0,2.2.33c3.58,0,5.72-1.89,5.72-5.07C104.08,13.92,101.91,12,98.68,12ZM90.06,20.5s0,0-.09,0c-.77-.42-1.43-.81-2.2-1.27l-1-.57,1-.61c.7-.43,1.37-.84,2.14-1.28,0,.82.07,1.54.1,2.24,0,.48,0,1,0,1.4A.6.6,0,0,1,90.06,20.5Z"/><path class="a" d="M123.22,1.32a.21.21,0,0,1,.19.21c0,.16.12.42.17.61s.13.52.3,1.15c.12.42.22.77.33,1.11.05.18.1.35.16.54a48.36,48.36,0,0,0,5.84-1.54c.12,0,.21-.07.3,0a.3.3,0,0,1,.14.2,8.75,8.75,0,0,1,.25,1,.42.42,0,0,1-.32.51c-2.06.63-4,1.1-5.69,1.48a25.25,25.25,0,0,0,1.19,2.84,30.21,30.21,0,0,0,5.26-1.52c.23-.08.4-.08.52.2a7.47,7.47,0,0,1,.25,1.05.4.4,0,0,1-.29.5c-1.59.52-3.31,1-5,1.37a19.1,19.1,0,0,0,4.11,5.34c.18.18.28.31.14.6a5.08,5.08,0,0,1-.66,1.07c-.23.26-.43.35-.76.07a9,9,0,0,0-1.88-1,13.84,13.84,0,0,0-5.11-.81c-2,0-4.5.45-4.5,2.56,0,1.86,2.13,2.72,6.71,2.72,1,0,1.87-.08,2.74-.16a.33.33,0,0,1,.27.07.41.41,0,0,1,.07.35,9,9,0,0,1-.3,1.32.45.45,0,0,1-.45.4h-.11c-.67.05-1.3.1-2.27.1-5.63,0-8.61-1.62-8.61-4.67,0-2.74,2.37-4.38,6.34-4.38a13.91,13.91,0,0,1,5.17.81A23.87,23.87,0,0,1,125,11.42a52.29,52.29,0,0,1-7.73.88c-.28,0-.34-.07-.43-.35a5.36,5.36,0,0,1-.25-1.29.08.08,0,0,1,0-.08.08.08,0,0,1,.07,0,49.35,49.35,0,0,0,7.53-.78c-.42-.89-.84-1.87-1.23-2.84a50.05,50.05,0,0,1-7,.77h0c-.26,0-.39-.06-.46-.36s-.16-.74-.24-1.24a.09.09,0,0,1,0-.09.1.1,0,0,1,.09,0,54.08,54.08,0,0,0,7.07-.63c-.09-.27-.18-.54-.27-.83l-.32-1a13.68,13.68,0,0,0-.76-1.89s0-.08,0-.11a.08.08,0,0,1,.08-.07A10.66,10.66,0,0,1,123.22,1.32Z"/><path class="a" d="M152.07,1.76c.21.07.17.21.12.33-.2.48-.35.87-.5,1.32-.31,1-.57,1.9-.81,2.74a34.52,34.52,0,0,0,3.57-.65h0a.42.42,0,0,1,.36,0,.29.29,0,0,1,.12.22c0,.31.11.79.14,1.17s-.06.41-.34.45c-1.27.26-2.65.49-4.44.77a64.83,64.83,0,0,1-5.4,11.34.44.44,0,0,1-.26.2h-.06a.46.46,0,0,1-.27-.1,6.55,6.55,0,0,1-1.1-.82c-.22-.19-.18-.38,0-.6a47.13,47.13,0,0,0,5-9.84c-1.15.1-2.15.17-3.23.17-.4,0-.82,0-1.44-.05-.31,0-.37-.12-.43-.42a9.43,9.43,0,0,1-.16-1.36.11.11,0,0,1,0-.09.11.11,0,0,1,.08,0c.76.07,1.48.11,2.12.11a33.46,33.46,0,0,0,3.59-.21c.27-.89.51-1.82.78-3.07a7.51,7.51,0,0,0,.21-2.08.15.15,0,0,1,0-.09.1.1,0,0,1,.09,0,11.75,11.75,0,0,1,2.22.57"/><path class="a" d="M149.05,20.49c0,2.34,2.22,3.41,4.29,3.41a5.28,5.28,0,0,0,3.91-1.22,4,4,0,0,0,1-2.93,16.12,16.12,0,0,1,3.91,2.48.48.48,0,0,0,.34.13.39.39,0,0,0,.26-.19,7.77,7.77,0,0,0,.66-1.2c.09-.24.13-.39-.15-.57a23.92,23.92,0,0,0-5.06-2.68,39,39,0,0,1-.27-4.78c0-.61,0-1.27.08-1.9,0-.25,0-.32-.18-.36a8.74,8.74,0,0,0-1.9-.38.17.17,0,0,0-.1,0,.12.12,0,0,0,0,.1,13.7,13.7,0,0,1,.16,1.71c.08,1.56.22,4,.31,5.14a13.5,13.5,0,0,0-2.58-.29C151,17,149.05,18.43,149.05,20.49Zm7.32-1.37c0,.12,0,.28,0,.57,0,.9-.37,2.42-2.9,2.42-1.77,0-2.67-.57-2.67-1.7s1.16-1.72,3-1.72A9.13,9.13,0,0,1,156.37,19.12Z"/><path class="a" d="M163.15,9.76a.44.44,0,0,0,.25.1.34.34,0,0,0,.28-.18,7.06,7.06,0,0,0,.62-1.09.41.41,0,0,0-.08-.63,19.07,19.07,0,0,0-5.32-2.55.4.4,0,0,0-.58.21,6.63,6.63,0,0,0-.39.67c-.1.18-.2.38-.32.57a.16.16,0,0,0,0,.1.12.12,0,0,0,.08.06A18.11,18.11,0,0,1,163.15,9.76Z"/><path class="a" d="M182,1.8c0-.22,0-.22-.19-.28h0a9.2,9.2,0,0,0-2.15-.36.1.1,0,0,0-.1,0,.12.12,0,0,0,0,.1A18,18,0,0,1,179.72,4c0,.69,0,1,0,1.47s0,1.21-.05,1.78c-1,.28-1.74.49-2.49.69l-1.23.34a11.48,11.48,0,0,1-1.77.26.16.16,0,0,0-.08.06.11.11,0,0,0,0,.1,7.65,7.65,0,0,0,.7,1.36c.19.25.3.49.53.46s.38-.16.57-.23.38-.15.69-.26c.78-.28,2-.67,3.05-1,0,.36,0,.77,0,1.2l0,1c-2.24,3.15-4.15,5.65-6,7.87-.18.22-.19.41,0,.58a11,11,0,0,0,.84.83l.18.16c.21.14.41.1.61-.14.67-.94,1.33-1.88,2-2.83s1.56-2.24,2.39-3.41c0,3.52,0,6.23-.1,9.41,0,.25.1.36.32.36.49,0,1.19,0,1.46-.06a.33.33,0,0,0,.3-.35v-.41c0-3.38-.1-6.57-.07-9.84,2.78-2.52,5.34-3.69,8.06-3.69s4.39,1.81,4.39,4.61a5.74,5.74,0,0,1-1.61,4,11.15,11.15,0,0,1-5.59,3,.12.12,0,0,0-.08.1.14.14,0,0,0,.06.11,12.63,12.63,0,0,1,1.21,1,.76.76,0,0,0,1,.17c3.49-1,7.23-3.75,7.23-8.25a6.16,6.16,0,0,0-6.53-6.48,12.66,12.66,0,0,0-8.09,3.32c0-.39,0-.75,0-1.23a14.35,14.35,0,0,1,1.29-1.9c.24-.27.38-.43.38-.64a1.17,1.17,0,0,0-.38-.68c-.27-.26-.45-.38-.6-.38a.42.42,0,0,0-.26.11.86.86,0,0,1-.24.13c0-.61.06-1.14.1-1.67s0-.7.06-1.27l0-.68A8.66,8.66,0,0,1,182,1.8Z"/><path class="a" d="M275.85,22.56a.11.11,0,0,0-.09.09.13.13,0,0,0,.05.11,10.7,10.7,0,0,1,1,1,.82.82,0,0,0,.59.36,1.27,1.27,0,0,0,.26,0c5.58-1.42,8.66-4.8,8.66-9.52,0-5.34-3.82-8.79-9.74-8.79a11.52,11.52,0,0,0-8.16,3,9.85,9.85,0,0,0-3.17,7.06c0,4.1,2,6.24,4.05,6.24,1.66,0,2.91-.88,4.06-2.83a30.17,30.17,0,0,0,3.56-11.73h.42a6.62,6.62,0,0,1,6.84,6.71C284.17,18.6,281.29,21.48,275.85,22.56ZM271.67,18c-.74,1.3-1.5,1.91-2.41,1.91s-2.07-1.09-2.07-4.09a8.35,8.35,0,0,1,2.56-5.75h0a8.91,8.91,0,0,1,5.05-2.43A28.34,28.34,0,0,1,271.67,18Z"/></svg>